<svg width="110" height="44" viewBox="0 0 110 44" fill="none" xmlns="http://www.w3.org/2000/svg">
<path d="M54.29 16.2898L49.29 21.2898C49.199 21.3849 49.1276 21.4971 49.08 21.6198C48.98 21.8633 48.98 22.1364 49.08 22.3798C49.1276 22.5026 49.199 22.6147 49.29 22.7098L54.29 27.7098C54.3832 27.8031 54.4939 27.877 54.6158 27.9275C54.7376 27.9779 54.8681 28.0039 55 28.0039C55.2663 28.0039 55.5217 27.8981 55.71 27.7098C55.8983 27.5215 56.0041 27.2661 56.0041 26.9998C56.0041 26.7335 55.8983 26.4781 55.71 26.2898L52.41 22.9998L60 22.9998C60.2652 22.9998 60.5196 22.8945 60.7071 22.7069C60.8946 22.5194 61 22.265 61 21.9998C61 21.7346 60.8946 21.4802 60.7071 21.2927C60.5196 21.1052 60.2652 20.9998 60 20.9998L52.41 20.9998L55.71 17.7098C55.8037 17.6169 55.8781 17.5063 55.9289 17.3844C55.9797 17.2625 56.0058 17.1318 56.0058 16.9998C56.0058 16.8678 55.9797 16.7371 55.9289 16.6152C55.8781 16.4934 55.8037 16.3828 55.71 16.2898C55.617 16.1961 55.5064 16.1217 55.3846 16.0709C55.2627 16.0202 55.132 15.994 55 15.994C54.868 15.994 54.7373 16.0202 54.6154 16.0709C54.4936 16.1217 54.383 16.1961 54.29 16.2898Z" fill="#263238"/>
</svg>
