<svg width="63" height="60" viewBox="0 0 63 60" fill="none" xmlns="http://www.w3.org/2000/svg">
<path d="M35.5491 1.49937L35.9118 1.83936L63 28.462L60.0947 31.4183L56.3647 27.753L56.3668 55.8538C56.3668 58.0388 54.6758 59.83 52.5311 59.9876L52.2223 60H10.7777C8.59355 60 6.80314 58.3083 6.64358 56.1627L6.63321 55.8538L6.63114 27.7551L2.90527 31.4183L0 28.462L27.0592 1.86631C29.3656 -0.488728 33.0853 -0.619332 35.5491 1.49937ZM30.1903 4.6173L29.9914 4.79766L10.7756 23.6815L10.7777 55.8538L21.1368 55.8517L21.1388 35.1229C21.1388 32.9378 22.8298 31.1467 24.9745 30.9871L25.2833 30.9767H37.7167C39.9008 30.9767 41.6912 32.6683 41.8508 34.814L41.8612 35.1229L41.8591 55.8517L52.2223 55.8538L52.2202 23.6794L32.9506 4.73961C32.1963 3.99952 31.0192 3.95391 30.1903 4.6173ZM37.7167 35.1229H25.2833L25.2812 55.8517H37.7146L37.7167 35.1229Z" fill="black"/>
</svg>
