<svg width="63" height="59" viewBox="0 0 63 59" fill="none" xmlns="http://www.w3.org/2000/svg">
<path d="M35.5491 1.86795L35.9118 2.19519L63 27.8195L60.0947 30.6649L56.3647 27.1371L56.3668 54.1841C56.3668 56.2872 54.6758 58.0112 52.5311 58.1628L52.2223 58.1748H10.7777C8.59355 58.1748 6.80314 56.5466 6.64358 54.4814L6.63321 54.1841L6.63114 27.1391L2.90527 30.6649L0 27.8195L27.0592 2.22113C29.3656 -0.0455962 33.0853 -0.171303 35.5491 1.86795ZM30.1903 4.86896L29.9914 5.04255L10.7756 23.2182L10.7777 54.1841L21.1368 54.1821L21.1388 34.2306C21.1388 32.1275 22.8298 30.4035 24.9745 30.2498L25.2833 30.2399H37.7167C39.9008 30.2399 41.6912 31.8681 41.8508 33.9333L41.8612 34.2306L41.8591 54.1821L52.2223 54.1841L52.2202 23.2162L32.9506 4.98668C32.1963 4.27434 31.0192 4.23044 30.1903 4.86896ZM37.7167 34.2306H25.2833L25.2812 54.1821H37.7146L37.7167 34.2306Z" fill="black"/>
</svg>
